{
	"asset": {
		"generator": "Tilt Brush 18.5.65f866c2f",
		"version": "1.1",
		"copyright": "Unknown."
	},
	"buffers": {
		"sketch": {
			"byteLength": 5203460,
			"type": "arraybuffer",
			"uri": "sketch.bin"
		}
	},
	"accessors": {
		"accessor_position_Lofted_d381e0f5-3def-4a0d-8853-31e9200bcbda_0_0": {
			"bufferView": "vec3BufferView",
			"byteOffset": 0,
			"byteStride": 12,
			"componentType": 5126,
			"count": 36512,
			"max": [ 0.6928877, 3.126233, 0.7403963 ],
			"min": [ -0.7162086, -0.008944354, -6.079363 ],
			"type": "VEC3"
		 },
		"accessor_normal_Lofted_d381e0f5-3def-4a0d-8853-31e9200bcbda_0_0": {
			"bufferView": "vec3BufferView",
			"byteOffset": 438144,
			"byteStride": 12,
			"componentType": 5126,
			"count": 36512,
			"max": [ 0.9855784, 0.9935084, 0.9855785 ],
			"min": [ -0.9855784, -0.9935083, -0.9855785 ],
			"type": "VEC3"
		 },
		"accessor_color_Lofted_d381e0f5-3def-4a0d-8853-31e9200bcbda_0_0": {
			"bufferView": "vec4BufferView",
			"byteOffset": 0,
			"byteStride": 16,
			"componentType": 5126,
			"count": 36512,
			"max": [ 0.8705882, 0.1568628, 0.8745098, 1 ],
			"min": [ 0.3411765, 0.04705882, 0.6470588, 1 ],
			"type": "VEC4"
		 },
		"accessor_tangent_Lofted_d381e0f5-3def-4a0d-8853-31e9200bcbda_0_0": {
			"bufferView": "vec4BufferView",
			"byteOffset": 584192,
			"byteStride": 16,
			"componentType": 5126,
			"count": 36512,
			"max": [ 1, 0.9999966, 1.000002, 1 ],
			"min": [ -1, -0.9999966, -1.000002, 1 ],
			"type": "VEC4"
		 },
		"accessor_uv0_Lofted_d381e0f5-3def-4a0d-8853-31e9200bcbda_0_0": {
			"bufferView": "vec2BufferView",
			"byteOffset": 0,
			"byteStride": 8,
			"componentType": 5126,
			"count": 36512,
			"max": [ 0.9954955, 1 ],
			"min": [ 0, 0 ],
			"type": "VEC2"
		 },
		"accessor_indices_0_Lofted_d381e0f5-3def-4a0d-8853-31e9200bcbda_0_0": {
			"bufferView": "ushortBufferView",
			"byteOffset": 0,
			"byteStride": 0,
			"componentType": 5123,
			"count": 108096,
			"max": [ 36511 ],
			"min": [ 0 ],
			"type": "SCALAR"
		 },
		"accessor_position_MatteHull_79348357-432d-4746-8e29-0e25c112e3aa_0_0": {
			"bufferView": "vec3BufferView",
			"byteOffset": 876288,
			"byteStride": 12,
			"componentType": 5126,
			"count": 53010,
			"max": [ 1.670092, 5.440371, 0.766973 ],
			"min": [ -1.670092, -0.01380793, -8.143259 ],
			"type": "VEC3"
		 },
		"accessor_normal_MatteHull_79348357-432d-4746-8e29-0e25c112e3aa_0_0": {
			"bufferView": "vec3BufferView",
			"byteOffset": 1512408,
			"byteStride": 12,
			"componentType": 5126,
			"count": 53010,
			"max": [ 1, 1, 1 ],
			"min": [ -1, -1, -1 ],
			"type": "VEC3"
		 },
		"accessor_color_MatteHull_79348357-432d-4746-8e29-0e25c112e3aa_0_0": {
			"bufferView": "vec4BufferView",
			"byteOffset": 1168384,
			"byteStride": 16,
			"componentType": 5126,
			"count": 53010,
			"max": [ 0.3411765, 0.1568628, 0.8745098, 1 ],
			"min": [ 0, 0, 0, 1 ],
			"type": "VEC4"
		 },
		"accessor_uv0_MatteHull_79348357-432d-4746-8e29-0e25c112e3aa_0_0": {
			"bufferView": "vec2BufferView",
			"byteOffset": 292096,
			"byteStride": 8,
			"componentType": 5126,
			"count": 53010,
			"max": [ 0, 1 ],
			"min": [ 0, 1 ],
			"type": "VEC2"
		 },
		"accessor_indices_0_MatteHull_79348357-432d-4746-8e29-0e25c112e3aa_0_0": {
			"bufferView": "ushortBufferView",
			"byteOffset": 216192,
			"byteStride": 0,
			"componentType": 5123,
			"count": 53010,
			"max": [ 53009 ],
			"min": [ 0 ],
			"type": "SCALAR"
		 }
	},
	"bufferViews": {
		"ushortBufferView": {
			"buffer": "sketch",
			"byteLength": 322212,
			"byteOffset": 0,
			"target": 34963
		},
		"vec2BufferView": {
			"buffer": "sketch",
			"byteLength": 716176,
			"byteOffset": 322212,
			"target": 34962
		},
		"vec3BufferView": {
			"buffer": "sketch",
			"byteLength": 2148528,
			"byteOffset": 1038388,
			"target": 34962
		},
		"vec4BufferView": {
			"buffer": "sketch",
			"byteLength": 2016544,
			"byteOffset": 3186916,
			"target": 34962
		}
	},
	"meshes": {
		"mesh_Lofted_d381e0f5-3def-4a0d-8853-31e9200bcbda_0_0": {
			"name": "mesh_Lofted_d381e0f5-3def-4a0d-8853-31e9200bcbda_0_0",
			"primitives": [
				{
					"attributes": {
						"POSITION": "accessor_position_Lofted_d381e0f5-3def-4a0d-8853-31e9200bcbda_0_0",
						"NORMAL": "accessor_normal_Lofted_d381e0f5-3def-4a0d-8853-31e9200bcbda_0_0",
						"COLOR": "accessor_color_Lofted_d381e0f5-3def-4a0d-8853-31e9200bcbda_0_0",
						"TANGENT": "accessor_tangent_Lofted_d381e0f5-3def-4a0d-8853-31e9200bcbda_0_0",
						"TEXCOORD_0": "accessor_uv0_Lofted_d381e0f5-3def-4a0d-8853-31e9200bcbda_0_0"
					},
					"indices": "accessor_indices_0_Lofted_d381e0f5-3def-4a0d-8853-31e9200bcbda_0_0",
					"material": "material_d381e0f5-3def-4a0d-8853-31e9200bcbda",
					"mode": 4
				}
			]
		},
		"mesh_MatteHull_79348357-432d-4746-8e29-0e25c112e3aa_0_0": {
			"name": "mesh_MatteHull_79348357-432d-4746-8e29-0e25c112e3aa_0_0",
			"primitives": [
				{
					"attributes": {
						"POSITION": "accessor_position_MatteHull_79348357-432d-4746-8e29-0e25c112e3aa_0_0",
						"NORMAL": "accessor_normal_MatteHull_79348357-432d-4746-8e29-0e25c112e3aa_0_0",
						"COLOR": "accessor_color_MatteHull_79348357-432d-4746-8e29-0e25c112e3aa_0_0",
						"TEXCOORD_0": "accessor_uv0_MatteHull_79348357-432d-4746-8e29-0e25c112e3aa_0_0"
					},
					"indices": "accessor_indices_0_MatteHull_79348357-432d-4746-8e29-0e25c112e3aa_0_0",
					"material": "material_79348357-432d-4746-8e29-0e25c112e3aa",
					"mode": 4
				}
			]
		}
	},
	"shaders": {
		"vertex_d381e0f5-3def-4a0d-8853-31e9200bcbda": {
			"type": 35633,
			"uri": "https://www.tiltbrush.com/shaders/brushes/Lofted-d381e0f5-3def-4a0d-8853-31e9200bcbda/Lofted-d381e0f5-3def-4a0d-8853-31e9200bcbda-v10.0-vertex.glsl"
		},
		"fragment_d381e0f5-3def-4a0d-8853-31e9200bcbda": {
			"type": 35632,
			"uri": "https://www.tiltbrush.com/shaders/brushes/Lofted-d381e0f5-3def-4a0d-8853-31e9200bcbda/Lofted-d381e0f5-3def-4a0d-8853-31e9200bcbda-v10.0-fragment.glsl"
		},
		"vertex_79348357-432d-4746-8e29-0e25c112e3aa": {
			"type": 35633,
			"uri": "https://www.tiltbrush.com/shaders/brushes/MatteHull-79348357-432d-4746-8e29-0e25c112e3aa/MatteHull-79348357-432d-4746-8e29-0e25c112e3aa-v10.0-vertex.glsl"
		},
		"fragment_79348357-432d-4746-8e29-0e25c112e3aa": {
			"type": 35632,
			"uri": "https://www.tiltbrush.com/shaders/brushes/MatteHull-79348357-432d-4746-8e29-0e25c112e3aa/MatteHull-79348357-432d-4746-8e29-0e25c112e3aa-v10.0-fragment.glsl"
		}
	},
	"programs": {
		"program_d381e0f5-3def-4a0d-8853-31e9200bcbda": {
			"attributes": [
				"a_position",
				"a_normal",
				"a_color",
				"a_tangent",
				"a_texcoord0"				
			],
			"vertexShader": "vertex_d381e0f5-3def-4a0d-8853-31e9200bcbda",
			"fragmentShader": "fragment_d381e0f5-3def-4a0d-8853-31e9200bcbda"
		},
		"program_79348357-432d-4746-8e29-0e25c112e3aa": {
			"attributes": [
				"a_position",
				"a_normal",
				"a_color",
				"a_texcoord0"				
			],
			"vertexShader": "vertex_79348357-432d-4746-8e29-0e25c112e3aa",
			"fragmentShader": "fragment_79348357-432d-4746-8e29-0e25c112e3aa"
		}
	},
	"techniques": {
		"technique_d381e0f5-3def-4a0d-8853-31e9200bcbda": {
			"program": "program_d381e0f5-3def-4a0d-8853-31e9200bcbda",
			"parameters": {
				"position": {
					"type": 35665,
					"semantic": "POSITION"
				},
				"normal": {
					"type": 35665,
					"semantic": "NORMAL"
				},
				"color": {
					"type": 35666,
					"semantic": "COLOR"
				},
				"tangent": {
					"type": 35666,
					"semantic": "TANGENT"
				},
				"texcoord0": {
					"type": 35664,
					"semantic": "TEXCOORD_0"
				},
				"modelViewMatrix": {
					"type": 35676,
					"semantic": "MODELVIEW"
				},
				"projectionMatrix": {
					"type": 35676,
					"semantic": "PROJECTION"
				},
				"normalMatrix": {
					"type": 35675,
					"semantic": "MODELVIEWINVERSETRANSPOSE"
				},
				"SceneLight_0_matrix": {
					"type": 35676,
					"semantic": "MODELVIEW",
					"node": "node_SceneLight_0_-1114"
				},
				"SceneLight_0_color": {
					"type": 35666,
					"node": "node_SceneLight_0_-1114"
				},
				"SceneLight_1_matrix": {
					"type": 35676,
					"semantic": "MODELVIEW",
					"node": "node_SceneLight_1_-1120"
				},
				"SceneLight_1_color": {
					"type": 35666,
					"node": "node_SceneLight_1_-1120"
				},
				"ambient_light_color": {
					"type": 35666
				},
				"Color": {
					"type": 35666
				}				
			},
			"attributes": {
				"a_position": "position",
				"a_normal": "normal",
				"a_color": "color",
				"a_tangent": "tangent",
				"a_texcoord0": "texcoord0"				
			},
			"uniforms": {
				"u_modelViewMatrix": "modelViewMatrix",
				"u_projectionMatrix": "projectionMatrix",
				"u_normalMatrix": "normalMatrix",
				"u_SceneLight_0_matrix": "SceneLight_0_matrix",
				"u_SceneLight_0_color": "SceneLight_0_color",
				"u_SceneLight_1_matrix": "SceneLight_1_matrix",
				"u_SceneLight_1_color": "SceneLight_1_color",
				"u_ambient_light_color": "ambient_light_color",
				"u_Color": "Color"				
			},
			"states": {
				"enable": [
					2929,
					2884
				],
				"functions": {
					"depthMask": [true]
				}
			}
		},
		"technique_79348357-432d-4746-8e29-0e25c112e3aa": {
			"program": "program_79348357-432d-4746-8e29-0e25c112e3aa",
			"parameters": {
				"position": {
					"type": 35665,
					"semantic": "POSITION"
				},
				"normal": {
					"type": 35665,
					"semantic": "NORMAL"
				},
				"color": {
					"type": 35666,
					"semantic": "COLOR"
				},
				"texcoord0": {
					"type": 35664,
					"semantic": "TEXCOORD_0"
				},
				"modelViewMatrix": {
					"type": 35676,
					"semantic": "MODELVIEW"
				},
				"projectionMatrix": {
					"type": 35676,
					"semantic": "PROJECTION"
				},
				"normalMatrix": {
					"type": 35675,
					"semantic": "MODELVIEWINVERSETRANSPOSE"
				},
				"SceneLight_0_matrix": {
					"type": 35676,
					"semantic": "MODELVIEW",
					"node": "node_SceneLight_0_-1114"
				},
				"SceneLight_0_color": {
					"type": 35666,
					"node": "node_SceneLight_0_-1114"
				},
				"SceneLight_1_matrix": {
					"type": 35676,
					"semantic": "MODELVIEW",
					"node": "node_SceneLight_1_-1120"
				},
				"SceneLight_1_color": {
					"type": 35666,
					"node": "node_SceneLight_1_-1120"
				},
				"ambient_light_color": {
					"type": 35666
				},
				"Cutoff": {
					"type": 5126
				},
				"Color": {
					"type": 35666
				}				
			},
			"attributes": {
				"a_position": "position",
				"a_normal": "normal",
				"a_color": "color",
				"a_texcoord0": "texcoord0"				
			},
			"uniforms": {
				"u_modelViewMatrix": "modelViewMatrix",
				"u_projectionMatrix": "projectionMatrix",
				"u_normalMatrix": "normalMatrix",
				"u_SceneLight_0_matrix": "SceneLight_0_matrix",
				"u_SceneLight_0_color": "SceneLight_0_color",
				"u_SceneLight_1_matrix": "SceneLight_1_matrix",
				"u_SceneLight_1_color": "SceneLight_1_color",
				"u_ambient_light_color": "ambient_light_color",
				"u_Cutoff": "Cutoff",
				"u_Color": "Color"				
			},
			"states": {
				"enable": [
					2929
				],
				"functions": {
					"depthMask": [true]
				}
			}
		}
	},
	"materials": {
		"material_d381e0f5-3def-4a0d-8853-31e9200bcbda": {
			"technique": "technique_d381e0f5-3def-4a0d-8853-31e9200bcbda",
			"values": {
				"SceneLight_0_color": [0.7780392, 0.8156863, 0.9913726, 1],
				"SceneLight_1_color": [0.4282353, 0.4211765, 0.3458824, 1],
				"ambient_light_color": [0.3921569, 0.3921569, 0.3921569, 1],
				"Color": [1, 1, 1, 1]				
			},
			"name": "material_d381e0f5-3def-4a0d-8853-31e9200bcbda"
		},
		"material_79348357-432d-4746-8e29-0e25c112e3aa": {
			"technique": "technique_79348357-432d-4746-8e29-0e25c112e3aa",
			"values": {
				"SceneLight_0_color": [0.7780392, 0.8156863, 0.9913726, 1],
				"SceneLight_1_color": [0.4282353, 0.4211765, 0.3458824, 1],
				"ambient_light_color": [0.3921569, 0.3921569, 0.3921569, 1],
				"Cutoff": 0.5,
				"Color": [1, 1, 1, 1]				
			},
			"name": "material_79348357-432d-4746-8e29-0e25c112e3aa"
		}
	},
	"nodes": {
		"node_Lofted_d381e0f5-3def-4a0d-8853-31e9200bcbda_0_0": {
			"name": "node_Lofted_d381e0f5-3def-4a0d-8853-31e9200bcbda_0_0",
			"meshes": [
				"mesh_Lofted_d381e0f5-3def-4a0d-8853-31e9200bcbda_0_0"
			],
			"matrix": [1, 0, 0, 0, 0, 1, 0, 0, 0, 0, 1, 0, 0, 0, 0, 1]
		},
		"node_SceneLight_0_-1114": {
			"name": "node_SceneLight_0_-1114",
			"light": "SceneLight_0",
			"matrix": [0.898794, 0.2191856, -0.3796406, 0, -0.4383712, 0.449397, -0.7783785, 0, -1.490116E-08, 0.8660254, 0.4999999, 0, 2.157332, -9.453046, 9.255304, 1]
		},
		"node_SceneLight_1_-1120": {
			"name": "node_SceneLight_1_-1120",
			"light": "SceneLight_1",
			"matrix": [0.7660444, -0.4924039, -0.4131759, 0, -0.6427876, -0.5868242, -0.4924039, 0, 8.940697E-08, 0.6427876, -0.7660446, 0, 2.157332, -9.577456, 8.549741, 1]
		},
		"node_MatteHull_79348357-432d-4746-8e29-0e25c112e3aa_0_0": {
			"name": "node_MatteHull_79348357-432d-4746-8e29-0e25c112e3aa_0_0",
			"meshes": [
				"mesh_MatteHull_79348357-432d-4746-8e29-0e25c112e3aa_0_0"
			],
			"matrix": [1, 0, 0, 0, 0, 1, 0, 0, 0, 0, 1, 0, 0, 0, 0, 1]
		}
	},
	"scene": "defaultScene",
	"scenes": {
		"defaultScene": {
			"nodes": [
				"node_Lofted_d381e0f5-3def-4a0d-8853-31e9200bcbda_0_0",
				"node_SceneLight_0_-1114",
				"node_SceneLight_1_-1120",
				"node_MatteHull_79348357-432d-4746-8e29-0e25c112e3aa_0_0"
			],
			"extras": {
				"TB_EnvironmentGuid": "580b4529-ac50-4fe9-b8d2-635765a14893",
				"TB_Environment": "Black",
				"TB_UseGradient": "true",
				"TB_SkyColorA": "0, 0, 0",
				"TB_SkyColorB": "0, 0, 0",
				"TB_SkyGradientDirection": "0, 1, 0",
				"TB_FogColor": "0.01960784, 0.01960784, 0.01960784",
				"TB_FogDensity": "0",
				"TB_SkyColorHorizon": "0, 0, 0",
				"TB_SkyColorZenith": "0, 0, 0"
			}
		}
	}
}